<svg version="1.1" id="Layer_1" xmlns="http://www.w3.org/2000/svg" xmlns:xlink="http://www.w3.org/1999/xlink" x="0px" y="0px"
	 width="100%" viewBox="0 0 105 105" enable-background="new 0 0 105 105" xml:space="preserve">
<path fill="#000000" opacity="1.000000" stroke="none" 
	d="
M66.000000,106.000000 
	C44.000000,106.000000 22.500000,106.000000 1.000000,106.000000 
	C1.000000,71.000000 1.000000,36.000000 1.000000,1.000000 
	C36.000000,1.000000 71.000000,1.000000 106.000000,1.000000 
	C106.000000,36.000000 106.000000,71.000000 106.000000,106.000000 
	C92.833336,106.000000 79.666664,106.000000 66.000000,106.000000 
M29.214642,94.801048 
	C29.164089,99.323494 30.918232,101.376770 34.021690,100.416840 
	C36.765251,99.568253 37.812782,97.516098 36.611908,95.114777 
	C34.974445,91.840416 32.249882,92.493591 29.214642,94.801048 
M76.190872,79.955978 
	C77.309006,78.360023 78.918343,76.872238 79.305267,75.115257 
	C79.461632,74.405220 76.963692,72.335152 75.642899,72.306595 
	C74.464508,72.281113 72.566139,74.021713 72.191345,75.328743 
	C71.534752,77.618546 71.926682,80.083664 76.190872,79.955978 
M41.330112,62.120811 
	C39.899738,63.697628 38.267822,65.153427 37.192894,66.943672 
	C36.950241,67.347801 38.855492,69.890503 39.413113,69.771210 
	C41.278419,69.372147 42.981087,68.212845 44.746044,67.344711 
	C43.857273,65.673042 42.968506,64.001373 41.330112,62.120811 
M61.792717,28.190321 
	C59.586617,30.208807 59.864357,32.554638 61.939507,34.055710 
	C63.089672,34.887691 65.675285,34.962486 66.827354,34.196144 
	C67.842476,33.520897 68.524239,30.168200 68.027351,29.803307 
	C66.522873,28.698483 64.374557,28.470404 61.792717,28.190321 
M41.726185,34.952229 
	C43.136486,33.939060 45.614029,33.004681 45.696064,31.893459 
	C45.807030,30.390270 44.410091,28.073753 43.028576,27.398823 
	C42.038189,26.914974 40.012806,28.549656 38.449181,29.239172 
	C39.278797,31.113079 40.108410,32.986984 41.726185,34.952229 
M52.731346,27.180645 
	C49.886398,28.413630 47.285229,30.015985 50.093773,33.329792 
	C51.018700,34.421112 53.285625,34.646469 54.955929,34.696186 
	C55.591839,34.715118 57.015491,32.798306 56.807358,32.332851 
	C55.974529,30.470387 54.641777,28.831469 52.731346,27.180645 
M75.418076,34.973160 
	C76.902069,33.761414 78.386063,32.549664 79.870064,31.337921 
	C78.631615,29.947094 77.614799,28.069784 76.064499,27.363478 
	C75.246346,26.990736 72.312279,28.813370 72.385567,29.378836 
	C72.634148,31.296803 73.797798,33.096169 75.418076,34.973160 
M78.785851,67.279533 
	C78.560059,65.425682 78.900993,63.119598 77.909340,61.876865 
	C77.247551,61.047516 73.770271,61.074978 73.187180,61.889233 
	C72.246323,63.203072 72.652367,65.481438 72.489510,67.352402 
	C74.405113,67.504326 76.320709,67.656258 78.785851,67.279533 
M8.226510,70.961899 
	C8.105429,73.031052 7.984347,75.100204 7.863266,77.169357 
	C9.574192,77.231255 11.554259,77.838387 12.905398,77.171432 
	C13.873887,76.693352 14.761201,73.571815 14.368776,73.253868 
	C12.839747,72.015038 10.786016,71.423820 8.226510,70.961899 
M18.447115,72.203918 
	C17.573221,74.675034 17.656275,77.081718 20.632399,77.615128 
	C22.065996,77.872070 24.254999,77.019646 25.192436,75.904800 
	C25.876888,75.090813 25.387850,71.865555 24.880089,71.728935 
	C23.031450,71.231522 20.955072,71.580528 18.447115,72.203918 
M84.949104,19.494602 
	C83.055260,20.563873 81.161407,21.633144 79.267555,22.702412 
	C80.052475,24.042789 80.576424,26.151419 81.688339,26.529123 
	C83.078934,27.001493 86.239182,26.313862 86.372032,25.664167 
	C86.739952,23.864801 85.932816,21.825169 84.949104,19.494602 
M34.714012,81.925034 
	C32.850574,82.643364 30.739882,83.057106 29.265141,84.254272 
	C28.784386,84.644531 29.548023,87.920219 30.478912,88.377640 
	C31.850080,89.051407 35.159405,88.837425 35.386986,88.198242 
	C36.022942,86.412125 35.499889,84.213348 34.714012,81.925034 
M67.203690,45.162437 
	C69.327995,42.380489 68.379410,39.892311 65.667931,38.725273 
	C64.549759,38.244007 62.317867,39.770161 60.914337,40.815395 
	C60.346622,41.238178 60.290253,43.603645 60.596283,43.738926 
	C62.522694,44.590538 64.616585,45.063282 67.203690,45.162437 
M72.920509,39.661098 
	C73.150482,41.671558 73.380455,43.682022 73.610428,45.692482 
	C75.287018,45.396626 77.285332,45.543564 78.523323,44.644062 
	C79.305382,44.075840 79.533905,41.646198 78.985497,40.577641 
	C77.878227,38.420170 75.962021,37.058586 72.920509,39.661098 
M60.833687,49.752892 
	C59.284706,48.551117 57.861065,47.038486 56.111893,46.333206 
	C55.573124,46.115963 53.406033,48.031288 53.302933,49.097614 
	C53.157692,50.599743 53.850182,53.190224 54.873848,53.602123 
	C57.547100,54.677792 60.077736,53.858521 60.833687,49.752892 
M76.923187,57.450363 
	C80.581230,54.421188 80.928192,51.513359 77.538391,50.517921 
	C76.021149,50.072369 72.792648,51.018539 72.377396,52.108829 
	C71.246338,55.078533 72.459503,57.568893 76.923187,57.450363 
M52.794853,59.290771 
	C52.933125,56.089283 51.195580,53.990601 48.240253,54.397404 
	C46.987911,54.569794 45.872707,57.302307 45.174580,59.061489 
	C44.940361,59.651676 46.304874,61.658752 46.743519,61.598465 
	C48.671749,61.333454 50.528599,60.549065 52.794853,59.290771 
M27.489712,32.848820 
	C29.316137,33.366673 31.261467,34.486134 32.920727,34.158184 
	C33.800308,33.984337 34.980080,31.023682 34.567917,29.819633 
	C34.148010,28.592972 31.130238,26.928894 30.665859,27.287891 
	C29.150148,28.459644 28.280382,30.466953 27.489712,32.848820 
M34.158092,77.836830 
	C34.956398,75.973053 36.145962,74.142906 36.310806,72.224693 
	C36.359264,71.660828 33.425751,70.191574 32.003799,70.360085 
	C30.906858,70.490089 28.980759,73.116180 29.258064,73.617424 
	C30.190077,75.302094 31.942972,76.532623 34.158092,77.836830 
M93.155136,18.820423 
	C93.625153,16.956846 94.506126,15.062950 94.371933,13.243944 
	C94.314674,12.467836 91.976509,11.115630 90.963997,11.338560 
	C89.631111,11.632028 87.874718,13.032593 87.544067,14.285383 
	C86.506836,18.215210 89.159828,19.018717 93.155136,18.820423 
z"/>
<path fill="#09009A" opacity="1.000000" stroke="none" 
	d="
M29.421484,94.450485 
	C32.249882,92.493591 34.974445,91.840416 36.611908,95.114777 
	C37.812782,97.516098 36.765251,99.568253 34.021690,100.416840 
	C30.918232,101.376770 29.164089,99.323494 29.421484,94.450485 
z"/>
<path fill="#09009C" opacity="1.000000" stroke="none" 
	d="
M75.788605,79.964310 
	C71.926682,80.083664 71.534752,77.618546 72.191345,75.328743 
	C72.566139,74.021713 74.464508,72.281113 75.642899,72.306595 
	C76.963692,72.335152 79.461632,74.405220 79.305267,75.115257 
	C78.918343,76.872238 77.309006,78.360023 75.788605,79.964310 
z"/>
<path fill="#09009B" opacity="1.000000" stroke="none" 
	d="
M41.704926,62.225258 
	C42.968506,64.001373 43.857273,65.673042 44.746044,67.344711 
	C42.981087,68.212845 41.278419,69.372147 39.413113,69.771210 
	C38.855492,69.890503 36.950241,67.347801 37.192894,66.943672 
	C38.267822,65.153427 39.899738,63.697628 41.704926,62.225258 
z"/>
<path fill="#08009B" opacity="1.000000" stroke="none" 
	d="
M62.134918,28.045513 
	C64.374557,28.470404 66.522873,28.698483 68.027351,29.803307 
	C68.524239,30.168200 67.842476,33.520897 66.827354,34.196144 
	C65.675285,34.962486 63.089672,34.887691 61.939507,34.055710 
	C59.864357,32.554638 59.586617,30.208807 62.134918,28.045513 
z"/>
<path fill="#09009A" opacity="1.000000" stroke="none" 
	d="
M41.332104,34.906563 
	C40.108410,32.986984 39.278797,31.113079 38.449181,29.239172 
	C40.012806,28.549656 42.038189,26.914974 43.028576,27.398823 
	C44.410091,28.073753 45.807030,30.390270 45.696064,31.893459 
	C45.614029,33.004681 43.136486,33.939060 41.332104,34.906563 
z"/>
<path fill="#09009C" opacity="1.000000" stroke="none" 
	d="
M53.112648,27.145252 
	C54.641777,28.831469 55.974529,30.470387 56.807358,32.332851 
	C57.015491,32.798306 55.591839,34.715118 54.955929,34.696186 
	C53.285625,34.646469 51.018700,34.421112 50.093773,33.329792 
	C47.285229,30.015985 49.886398,28.413630 53.112648,27.145252 
z"/>
<path fill="#09009B" opacity="1.000000" stroke="none" 
	d="
M75.014977,34.957001 
	C73.797798,33.096169 72.634148,31.296803 72.385567,29.378836 
	C72.312279,28.813370 75.246346,26.990736 76.064499,27.363478 
	C77.614799,28.069784 78.631615,29.947094 79.870064,31.337917 
	C78.386063,32.549664 76.902069,33.761414 75.014977,34.957001 
z"/>
<path fill="#08009B" opacity="1.000000" stroke="none" 
	d="
M78.511078,67.543861 
	C76.320709,67.656258 74.405113,67.504326 72.489502,67.352402 
	C72.652367,65.481438 72.246323,63.203072 73.187180,61.889233 
	C73.770271,61.074978 77.247551,61.047516 77.909340,61.876865 
	C78.900993,63.119598 78.560059,65.425682 78.511078,67.543861 
z"/>
<path fill="#08009B" opacity="1.000000" stroke="none" 
	d="
M8.576977,70.776810 
	C10.786016,71.423820 12.839747,72.015038 14.368776,73.253868 
	C14.761201,73.571815 13.873887,76.693352 12.905398,77.171432 
	C11.554259,77.838387 9.574192,77.231255 7.863266,77.169357 
	C7.984347,75.100204 8.105429,73.031052 8.576977,70.776810 
z"/>
<path fill="#08009B" opacity="1.000000" stroke="none" 
	d="
M18.705833,71.907181 
	C20.955072,71.580528 23.031450,71.231522 24.880089,71.728935 
	C25.387850,71.865555 25.876888,75.090813 25.192436,75.904800 
	C24.254999,77.019646 22.065996,77.872070 20.632399,77.615128 
	C17.656275,77.081718 17.573221,74.675034 18.705833,71.907181 
z"/>
<path fill="#09009C" opacity="1.000000" stroke="none" 
	d="
M85.269608,19.687551 
	C85.932816,21.825169 86.739952,23.864801 86.372032,25.664167 
	C86.239182,26.313862 83.078934,27.001493 81.688339,26.529123 
	C80.576424,26.151419 80.052475,24.042789 79.267555,22.702415 
	C81.161407,21.633144 83.055260,20.563873 85.269608,19.687551 
z"/>
<path fill="#08009B" opacity="1.000000" stroke="none" 
	d="
M35.074154,82.051239 
	C35.499889,84.213348 36.022942,86.412125 35.386986,88.198242 
	C35.159405,88.837425 31.850080,89.051407 30.478912,88.377640 
	C29.548023,87.920219 28.784386,84.644531 29.265141,84.254272 
	C30.739882,83.057106 32.850574,82.643364 35.074154,82.051239 
z"/>
<path fill="#08009B" opacity="1.000000" stroke="none" 
	d="
M66.929413,45.411835 
	C64.616585,45.063282 62.522694,44.590538 60.596283,43.738926 
	C60.290253,43.603645 60.346622,41.238178 60.914337,40.815395 
	C62.317867,39.770161 64.549759,38.244007 65.667931,38.725273 
	C68.379410,39.892311 69.327995,42.380489 66.929413,45.411835 
z"/>
<path fill="#09009C" opacity="1.000000" stroke="none" 
	d="
M73.181610,39.374538 
	C75.962021,37.058586 77.878227,38.420170 78.985497,40.577641 
	C79.533905,41.646198 79.305382,44.075840 78.523323,44.644062 
	C77.285332,45.543564 75.287018,45.396626 73.610428,45.692482 
	C73.380455,43.682022 73.150482,41.671558 73.181610,39.374538 
z"/>
<path fill="#09009C" opacity="1.000000" stroke="none" 
	d="
M60.868813,50.133129 
	C60.077736,53.858521 57.547100,54.677792 54.873848,53.602123 
	C53.850182,53.190224 53.157692,50.599743 53.302933,49.097614 
	C53.406033,48.031288 55.573124,46.115963 56.111893,46.333206 
	C57.861065,47.038486 59.284706,48.551117 60.868813,50.133129 
z"/>
<path fill="#08009B" opacity="1.000000" stroke="none" 
	d="
M76.577522,57.612846 
	C72.459503,57.568893 71.246338,55.078533 72.377396,52.108829 
	C72.792648,51.018539 76.021149,50.072369 77.538391,50.517921 
	C80.928192,51.513359 80.581230,54.421188 76.577522,57.612846 
z"/>
<path fill="#08009B" opacity="1.000000" stroke="none" 
	d="
M52.603088,59.621857 
	C50.528599,60.549065 48.671749,61.333454 46.743519,61.598465 
	C46.304874,61.658752 44.940361,59.651676 45.174580,59.061489 
	C45.872707,57.302307 46.987911,54.569794 48.240253,54.397404 
	C51.195580,53.990601 52.933125,56.089283 52.603088,59.621857 
z"/>
<path fill="#09009B" opacity="1.000000" stroke="none" 
	d="
M27.325924,32.500832 
	C28.280382,30.466953 29.150148,28.459644 30.665859,27.287891 
	C31.130238,26.928894 34.148010,28.592972 34.567917,29.819633 
	C34.980080,31.023682 33.800308,33.984337 32.920727,34.158184 
	C31.261467,34.486134 29.316137,33.366673 27.325924,32.500832 
z"/>
<path fill="#09009B" opacity="1.000000" stroke="none" 
	d="
M33.769920,77.886887 
	C31.942972,76.532623 30.190077,75.302094 29.258064,73.617424 
	C28.980759,73.116180 30.906858,70.490089 32.003799,70.360085 
	C33.425751,70.191574 36.359264,71.660828 36.310806,72.224693 
	C36.145962,74.142906 34.956398,75.973053 33.769920,77.886887 
z"/>
<path fill="#09009C" opacity="1.000000" stroke="none" 
	d="
M92.759949,18.880966 
	C89.159828,19.018717 86.506836,18.215210 87.544067,14.285383 
	C87.874718,13.032593 89.631111,11.632028 90.963997,11.338560 
	C91.976509,11.115630 94.314674,12.467836 94.371933,13.243944 
	C94.506126,15.062950 93.625153,16.956846 92.759949,18.880966 
z"/>
</svg>